# xmcd
#
# Track frame offsets: 
#        150
#        17228
#        26230
#        38532
#        48709
#        58809
#        68394
#        80272
#        93532
#        109100
#        119123
#
# Disc length: 1690 seconds
#
# Revision: 0
# Processed by: cddbd v1.5.2PL0 Copyright (c) Steve Scherf et al.
# Submitted via: ExactAudioCopy v1.0b4
#
DISCID=9306980b
DTITLE=Whiskey Shivers - Batholith
DYEAR=2011
DGENRE=Bluegrass
TTITLE0=Old Home Place
TTITLE1=Dooley
TTITLE2=Wookie Boogers
TTITLE3=Mole In The Ground
TTITLE4=Gimme All Your Lovin'
TTITLE5=Salt Creek
TTITLE6=Love Please Come Home
TTITLE7=XHM Blues
TTITLE8=Drunk Dial
TTITLE9=Tell Me, Do You Want Me?
TTITLE10=Ball
EXTD=
EXTT0=
EXTT1=
EXTT2=
EXTT3=
EXTT4=
EXTT5=
EXTT6=
EXTT7=
EXTT8=
EXTT9=
EXTT10=
PLAYORDER=
